<?xml version="1.0" encoding="UTF-8" standalone="no"?>
<!-- Created with Inkscape (http://www.inkscape.org/) -->

<svg
   width="210mm"
   height="210mm"
   viewBox="0 0 210 210"
   version="1.1"
   id="svg5"
   xml:space="preserve"
   inkscape:version="1.2.2 (b0a8486541, 2022-12-01)"
   sodipodi:docname="crab.svg"
   xmlns:inkscape="http://www.inkscape.org/namespaces/inkscape"
   xmlns:sodipodi="http://sodipodi.sourceforge.net/DTD/sodipodi-0.dtd"
   xmlns="http://www.w3.org/2000/svg"
   xmlns:svg="http://www.w3.org/2000/svg"><sodipodi:namedview
     id="namedview7"
     pagecolor="#505050"
     bordercolor="#eeeeee"
     borderopacity="1"
     inkscape:showpageshadow="0"
     inkscape:pageopacity="0"
     inkscape:pagecheckerboard="0"
     inkscape:deskcolor="#505050"
     inkscape:document-units="mm"
     showgrid="false"
     inkscape:zoom="0.77593294"
     inkscape:cx="143.69798"
     inkscape:cy="352.47891"
     inkscape:window-width="1886"
     inkscape:window-height="1006"
     inkscape:window-x="13"
     inkscape:window-y="53"
     inkscape:window-maximized="1"
     inkscape:current-layer="layer1" /><defs
     id="defs2" /><g
     inkscape:label="Layer 1"
     inkscape:groupmode="layer"
     id="layer1"><g
       id="g5795"
       transform="translate(2.3988162)"
       style="display:inline"><path
         style="fill:#a32f22;fill-opacity:1;stroke:none;stroke-width:0.264583px;stroke-linecap:butt;stroke-linejoin:miter;stroke-opacity:1"
         d="m 95.416342,139.23227 c 0,0 25.053828,0.42942 39.290348,-3.95307 14.23652,-4.38248 27.58494,-11.12474 27.58494,-11.12474 0,0 -7.4056,18.13667 -7.91654,19.87875 -0.51095,1.7421 -1.11202,4.37756 -1.11202,4.37756 0,0 8.41381,-12.06354 9.65115,-14.07434 1.23734,-2.01081 6.56259,-10.17267 6.56259,-10.17267 l -9.10258,-4.45726 -31.87846,11.35128 -30.143815,3.78243 z"
         id="path5842" /><path
         style="fill:#a32f22;fill-opacity:1;stroke:none;stroke-width:0.264583px;stroke-linecap:butt;stroke-linejoin:miter;stroke-opacity:1"
         d="m 18.761566,124.28537 6.630556,9.40761 0.621959,-10.03713 -6.347126,-2.23252 z"
         id="path5844" /><path
         style="display:inline;fill:#ef5023;fill-opacity:1;stroke:none;stroke-width:0.264583px;stroke-linecap:butt;stroke-linejoin:miter;stroke-opacity:1"
         d="m 20.329275,108.22404 -4.785772,-6.82614 c 0,0 -0.914143,-1.31626 -0.482341,-2.463996 0.431801,-1.147744 10.086815,-3.089154 10.086815,-3.089154 l 1.202122,-1.830154 -3.667813,-8.429662 c 0,0 -0.338443,-1.631006 0.302547,-2.35643 0.64099,-0.725424 10.293612,-0.430799 10.293612,-0.430799 l 1.610196,-1.977023 -1.908101,-8.158313 c 0,0 -0.425154,-2.048706 0.573696,-2.725645 0.998847,-0.676939 9.977003,1.342618 9.977003,1.342618 l 2.067102,-1.649103 -0.2198,-8.927544 c 0,0 0.390642,-1.504339 1.493817,-1.93416 1.103175,-0.429818 9.353851,3.624387 9.353851,3.624387 l 1.964616,-0.774269 1.611426,-9.446371 c 0,0 0.319757,-1.384078 1.48068,-1.720805 1.160926,-0.336725 8.661556,5.555311 8.661556,5.555311 l 2.384332,-0.501812 3.114371,-8.917913 c 0,0 0.121063,-0.878068 1.823802,-0.963314 1.702742,-0.08525 7.944006,7.143978 7.944006,7.143978 l 2.219301,0.0098 4.483373,-7.916034 c 0,0 0.762172,-1.133388 1.897491,-0.995236 1.135319,0.13815 6.452577,8.823108 6.452577,8.823108 l 2.1927,0.0268 5.83532,-6.591485 c 0,0 1.21129,-1.045025 2.436,-0.394115 1.22471,0.650909 4.17743,9.638673 4.17743,9.638673 l 2.32069,0.769276 6.98854,-5.464667 c 0,0 1.23627,-0.775632 2.20864,-0.02394 0.97237,0.751689 2.48173,10.283393 2.48173,10.283393 l 1.90632,1.406795 8.40464,-3.541469 c 0,0 0.88799,-0.825693 1.87006,0.503129 0.98207,1.32882 0.73857,10.575486 0.73857,10.575486 l 1.27344,1.309089 8.06424,-1.643348 c 0,0 0.85587,-0.748178 2.07499,0.261916 1.21911,1.010098 -0.72627,11.050876 -0.72627,11.050876 l 1.40908,1.547985 7.86312,-0.133562 c 0,0 1.72705,-0.329173 2.41026,1.263309 0.68321,1.592479 -2.94927,9.877332 -2.94927,9.877332 l 0.7035,2.584349 7.68252,1.131221 c 0,0 2.18585,0.04476 2.51372,2.168565 0.32787,2.123817 -5.09197,9.018897 -5.09197,9.018897 l 0.42784,1.28513 7.73438,-6.82237 1.80187,-3.910269 c 0,0 -7.97197,-9.657244 -6.20419,-16.820258 1.76778,-7.163012 4.91907,-9.51363 7.92254,-12.296558 3.00347,-2.782928 8.15165,-4.437645 8.74112,-4.731784 0.58947,-0.294143 -1.30188,6.725575 -1.27024,11.91116 0.0316,5.185582 -0.16733,9.345795 -0.16733,9.345795 0,0 6.01268,-0.39611 9.28193,-8.220501 3.26925,-7.824388 3.336,-10.213337 3.336,-10.213337 0,0 5.19574,7.565385 2.60189,16.090963 -2.59385,8.525576 -9.65332,13.422072 -9.65332,13.422072 0,0 2.43899,-2.001695 -0.82835,0.748247 -3.26734,2.74995 -6.95782,5.15191 -6.95782,5.15191 0,0 -4.23135,5.53661 -5.60367,7.15298 -1.37231,1.61637 -4.23315,3.78499 -4.23315,3.78499 l 8.19606,6.38542 c 0,0 1.32727,0.53451 1.17019,2.48517 -0.15708,1.95067 -23.43052,35.93704 -23.43052,35.93704 0,0 0.10385,-3.01235 1.36167,-6.2725 1.25782,-3.26015 9.48016,-25.08723 9.48016,-25.08723 l 0.0276,-2.3981 c 0,0 -5.61688,-4.41197 -9.92054,-3.45885 -4.30365,0.95313 -16.27947,6.60989 -20.9634,7.95794 -4.68392,1.34806 -21.5533,5.22872 -24.81555,5.45773 -3.26225,0.229 -58.542784,2.17162 -58.542784,2.17162 0,0 0.457335,4.39685 0.372782,6.05232 -0.08455,1.65547 0.04133,4.04983 0.04133,4.04983 0,0 -3.955989,-3.39893 -6.555123,-4.79945 -2.599137,-1.40052 -12.660416,-6.0329 -13.560071,-6.49076 -0.899652,-0.45787 -3.259762,-3.10182 -3.259762,-3.10182 l -8.735123,0.35964 c 0,0 -0.106324,-2.06578 -0.268563,-3.61217 -0.16224,-1.54639 -0.384665,-2.8206 -0.384665,-2.8206 l -2.3339,-4.4021 c 0,0 -2.688754,0.65844 -3.646018,1.35302 -0.957265,0.69457 -1.9052,1.92054 -1.584471,3.41644 0.32073,1.49589 2.684242,7.81759 2.684242,7.81759 l 7.019984,16.87593 c 0,0 0.924298,3.18626 1.08317,5.00159 0.158869,1.81532 0.138202,2.04232 0.138202,2.04232 l -4.234216,-6.2828 -18.7662232,-27.53055 c 0,0 -0.4493905,-1.1226 -0.498195,-2.64221 -0.048805,-1.51962 9.7183662,-8.52234 9.7183662,-8.52234 0,0 1.894648,0.30746 3.83527,-1.76516 1.940622,-2.07262 2.718133,-4.14496 2.718133,-4.14496 z"
         id="path1008"
         sodipodi:nodetypes="ccscccscccscccscccscccscccscccscccscccscccscccscccsccccszsscscscscsccscsccssscscssccsccssccscccscsc"
         inkscape:label="path1008" /><path
         style="display:inline;fill:#a32f22;fill-opacity:1;stroke:none;stroke-width:0.264583px;stroke-linecap:butt;stroke-linejoin:miter;stroke-opacity:1"
         d="m 119.37203,114.19236 c 0,0 0.67404,-0.91996 0.86401,-1.55524 0.18997,-0.63529 0.3864,-0.82713 0.3864,-0.82713 l 40.39665,-9.84216 c 0,0 -1.60807,6.87539 -5.56006,11.11933 -3.952,4.24395 -15.07984,11.09969 -15.07984,11.09969 z"
         id="path6267"
         sodipodi:nodetypes="csccscc" /><path
         style="fill:#a32f22;stroke:none;stroke-width:0.264583px;stroke-linecap:butt;stroke-linejoin:miter;stroke-opacity:1;fill-opacity:1"
         d="m 28.736319,111.16893 2.32356,8.14662 2.780567,3.28267 c 0,0 7.254279,-1.844 13.215186,-0.45807 5.824066,1.35412 8.949584,6.50646 8.949584,6.50646 l 16.955405,-3.06051 34.986619,-7.9012 -2.32784,-1.74353 -31.175795,7.15964 c 0,0 -0.01545,-0.85449 -0.578363,-1.02832 -0.562901,-0.17382 -15.777692,3.96804 -15.777692,3.96804 0,0 -4.352081,-4.77069 -9.393555,-6.7153 -6.390219,-2.46485 -14.1098,1.98601 -14.1098,1.98601 l -2.641343,-2.17556 z"
         id="path6264"
         sodipodi:nodetypes="cccscccccscsccc"
         transform="translate(-2.3988162)" /><path
         style="display:inline;fill:#ef5023;fill-opacity:1;stroke:none;stroke-width:0.264583px;stroke-linecap:butt;stroke-linejoin:miter;stroke-opacity:1"
         d="m 41.7562,147.59289 c 0,0 2.009611,3.0718 3.089291,4.19874 1.07968,1.12694 4.366535,3.67577 4.366535,3.67577 0,0 -5.099045,1.22652 -8.913606,-0.64287 -3.814559,-1.86938 -7.341503,-4.81435 -7.341503,-4.81435 z"
         id="path1432"
         sodipodi:nodetypes="cscscc" /><path
         style="fill:#000000;fill-opacity:1;stroke:#000000;stroke-width:0.264583px;stroke-linecap:butt;stroke-linejoin:miter;stroke-opacity:1"
         d="m 52.98047,128.6669 15.337012,-4.22632 c 0,0 1.02448,-0.30013 1.404006,0.13593 0.379529,0.43605 -0.04942,5.33031 -0.04942,5.33031 0,0 -0.514345,6.48233 -0.47172,7.7568 0.04262,1.27447 0.661781,2.53259 -0.07482,3.43691 -0.736608,0.90431 -2.737363,1.69201 -4.183575,1.60673 -1.446213,-0.0853 -4.286052,0.30144 -5.309503,0.50386 -1.02345,0.20243 -2.482461,0.64159 -2.482461,0.64159 0,0 -0.343561,-6.52574 -1.009107,-8.87529 -0.665546,-2.34956 -3.160406,-6.31052 -3.160406,-6.31052 z"
         id="path1436" /><path
         style="fill:#000000;fill-opacity:1;stroke:none;stroke-width:0.264583px;stroke-linecap:butt;stroke-linejoin:miter;stroke-opacity:1"
         d="m 17.439805,142.56318 0.521362,-5.5579 c 0,0 0.201322,-0.70607 1.105121,-1.49665 0.903799,-0.79058 3.620707,-1.5985 3.620707,-1.5985 l 10.42051,-1.04906 c 0,0 1.888705,2.21299 3.370781,3.03837 1.482077,0.82537 7.972849,2.95951 10.751831,4.55334 2.778982,1.59384 6.26047,4.30917 6.26047,4.30917 l -32.067017,8.50291 c 0,0 -1.452239,0.68224 -2.52258,-0.34774 -1.070341,-1.02997 -1.86418,-3.04547 -1.907378,-5.6936 -0.0432,-2.64814 0.446193,-4.66034 0.446193,-4.66034 z"
         id="path1434" /><path
         style="fill:#d0d2d3;fill-opacity:0.980392;stroke:none;stroke-width:0.264583px;stroke-linecap:butt;stroke-linejoin:miter;stroke-opacity:1"
         d="m 70.027185,125.82464 -1.326893,16.47024 c 0,0 -0.30978,1.45115 1.07356,1.85454 1.383342,0.40339 55.532188,-11.81008 55.532188,-11.81008 0,0 10.94071,-5.26718 14.99222,-8.02889 4.05151,-2.7617 4.79106,-2.80658 8.50808,-6.61287 3.71701,-3.80629 9.95444,-12.37704 9.95444,-12.37704 z"
         id="path1440" /><path
         style="fill:#ffffff;fill-opacity:1;stroke:none;stroke-width:0.264583px;stroke-linecap:butt;stroke-linejoin:miter;stroke-opacity:1"
         d="m 74.376099,130.68844 8.959167,-4.8659 45.529534,-9.76797 z"
         id="path1438" /><path
         style="display:inline;fill:#ffffff;fill-opacity:0.980392;stroke:none;stroke-width:0.264583px;stroke-linecap:butt;stroke-linejoin:miter;stroke-opacity:1"
         d="m 158.40544,106.52858 0.29857,1.6585 1.173,-1.45327 3.22437,0.0378 -2.36668,-1.22847 1.28793,-4.1656 -3.334,3.14224 -4.03521,-1.59336 1.86417,2.17172 -2.02207,1.74515 z"
         id="path1442" /><path
         style="fill:#000000;fill-opacity:1;stroke:#000000;stroke-width:0.264583px;stroke-linecap:butt;stroke-linejoin:miter;stroke-opacity:1"
         d="m 68.456513,100.81015 c 0,0 -1.826744,3.86548 -1.826744,6.50865 0,2.64317 1.240737,7.58935 4.674153,9.3383 3.433413,1.74895 7.344103,3.87654 10.767943,1.18123 3.423841,-2.69531 6.137378,-4.86642 5.843394,-9.91113 -0.293983,-5.04471 0.364379,-4.04754 -0.349371,-5.39907 -0.713754,-1.35153 -2.329619,-2.565521 -5.656731,-3.861506 -3.327114,-1.295982 -5.741601,-2.510255 -7.538828,-2.510255 -1.797228,0 -2.684032,-0.672717 -3.914138,1.224055 -1.230106,1.896774 -1.999678,3.429726 -1.999678,3.429726 z"
         id="path5033" /><path
         style="fill:#ffffff;fill-opacity:1;stroke:none;stroke-width:0.264583px;stroke-linecap:butt;stroke-linejoin:miter;stroke-opacity:1"
         d="m 68.32082,100.66832 c 0,0 0.82752,5.22184 4.077823,5.52261 3.2503,0.30077 3.774168,-1.47203 4.648705,-3.0307 0.874537,-1.55867 0.611664,-3.703438 0.152945,-5.17186 -0.458718,-1.468419 -0.976603,-1.68094 -2.783022,-1.917181 -1.806419,-0.236241 -3.008376,-0.882476 -3.947205,0.611862 -0.938826,1.494337 -2.149246,3.985269 -2.149246,3.985269 z"
         id="path5035"
         sodipodi:nodetypes="cszsssc" /><path
         style="fill:#000000;fill-opacity:1;stroke:none;stroke-width:0.264583px;stroke-linecap:butt;stroke-linejoin:miter;stroke-opacity:1"
         d="m 100.25585,103.30999 c 0,0 -0.21612,-0.69829 0.59774,-1.80188 0.81386,-1.10359 2.27046,-1.636092 3.88811,-2.403738 1.61764,-0.767646 7.24341,-2.66777 7.24341,-2.66777 0,0 2.46646,-0.80486 3.5455,-0.346125 1.07905,0.458734 2.89414,2.477683 3.81836,4.989643 0.92421,2.51195 2.62574,6.83746 1.06441,9.82158 -1.56133,2.98411 -1.85673,3.70123 -1.85673,3.70123 l -13.81588,3.29318 c 0,0 -3.65216,-3.52481 -4.35593,-6.34034 -0.703766,-2.81553 -0.18626,-6.32674 -0.18626,-7.01393 0,-0.68719 0.0573,-1.23185 0.0573,-1.23185 z"
         id="path5039"
         sodipodi:nodetypes="csscsssccsscc" /><path
         style="fill:#ffffff;fill-opacity:1;stroke:none;stroke-width:0.264583px;stroke-linecap:butt;stroke-linejoin:miter;stroke-opacity:1"
         d="m 103.27771,99.602527 6.79855,-2.627627 c 0,0 2.71455,2.283634 1.75057,5.1853 -0.96397,2.90167 -1.78459,4.52118 -3.21159,4.73557 -1.427,0.21439 -2.78469,0.60178 -3.96646,-0.92478 -1.18176,-1.52656 -1.37107,-6.368463 -1.37107,-6.368463 z"
         id="path5037"
         sodipodi:nodetypes="ccszsc" /></g></g></svg>
