<svg id="Layer_1" data-name="Layer 1" xmlns="http://www.w3.org/2000/svg" viewBox="0 0 748.53 434.88">
  <defs>
    <style>
      .cls-1 {
        fill: #fff;
      }

      .cls-2 {
        fill: #ef5023;
      }

      .cls-3 {
        fill: #a32f22;
      }

      .cls-4 {
        fill: #d0d2d3;
      }
    </style>
  </defs>
  <g>
    <g>
      <path class="cls-3" d="m592.59,295.03c-4.29,1.32-8.69,2.36-13.21,3.1-79.56,37.91-160.95,50.43-234.38,50.17v-.14c-1.97.04-3.95.07-5.93.1-1.98-.03-3.96-.05-5.93-.1v.14c-73.43.26-154.82-12.26-234.38-50.17-4.52-.73-8.93-1.78-13.21-3.1-14.86-.6-25.68,4.31-31.35,7.73.53,1.34,1.19,2.78,2.04,4.35,5.57,10.19,33.45,50.21,48.15,71.17,6.32,10.72,10.61,17.33,10.98,16.7.58-.99-3.97-20.96-16.53-43.9-7.65-16.04-17.23-38.85-20.04-50.12,8.03,7.01,81.2,58.54,245.81,58.71,4.9,0,9.7-.04,14.45-.11,4.75.07,9.55.12,14.45.11,164.61-.16,237.78-51.69,245.81-58.71-2.81,11.27-12.39,34.08-20.04,50.12-12.56,22.94-17.11,42.91-16.53,43.9.37.62,4.66-5.99,10.98-16.7,14.71-20.96,42.58-60.98,48.15-71.17.86-1.57,1.52-3.01,2.04-4.35-5.67-3.42-16.49-8.33-31.35-7.73Z"/>
      <path class="cls-2" d="m735.93,89.83c-10.57,58.39-46.63,70.91-46.63,70.91-3.07-66.1,7.4-83.21,7.4-83.21-119.58,52.82-42.66,129.34-42.66,129.34l-7.02,15.6c-10.3,10.47-20.08,18.82-29.13,25.51-.46-1.62-.93-3.24-1.41-4.85l18.49-26.79c1.89-2.72,2.27-6.27,1.04-9.37-1.23-3.09-3.91-5.31-7.09-5.85l-31.27-5.31c-1.21-2.47-2.48-4.91-3.76-7.32l13.14-30.08c1.35-3.06,1.07-6.62-.73-9.4-1.79-2.79-4.81-4.43-8.04-4.3l-31.73,1.15c-1.64-2.14-3.31-4.26-5.01-6.34l7.29-32.24c.74-3.27-.19-6.7-2.47-9.08-2.27-2.37-5.56-3.35-8.69-2.58l-30.91,7.6c-2-1.77-4.04-3.51-6.09-5.23l1.11-33.09c.12-3.35-1.44-6.53-4.12-8.39-2.68-1.87-6.08-2.15-9.01-.76l-28.83,13.71c-2.32-1.33-4.66-2.65-7.02-3.93l-5.1-32.61c-.52-3.3-2.64-6.11-5.62-7.39-2.97-1.29-6.37-.87-8.97,1.09l-25.71,19.29c-2.53-.84-5.08-1.65-7.65-2.42l-11.08-30.93c-1.13-3.15-3.73-5.47-6.89-6.12-3.16-.64-6.41.45-8.6,2.89l-21.64,24.21c-2.61-.3-5.23-.57-7.86-.8l-16.71-28.15c-.53-.89-1.19-1.66-1.94-2.31v-.04c-.08-.07-.17-.12-.26-.19-.23-.19-.47-.36-.72-.52-.15-.1-.28-.2-.43-.29-.38-.22-.78-.41-1.18-.58-.17-.07-.35-.12-.52-.18-.28-.09-.57-.18-.86-.24-.18-.04-.36-.08-.55-.11-.41-.07-.83-.11-1.25-.12-.04,0-.09-.01-.13-.01,0,0-.02,0-.03,0s-.02,0-.03,0c-.05,0-.09.01-.13.01-.42,0-.84.05-1.25.12-.19.03-.37.07-.55.11-.29.07-.58.15-.86.24-.18.06-.35.11-.52.18-.41.16-.8.35-1.18.58-.15.09-.29.19-.43.29-.25.16-.49.33-.72.52-.08.07-.18.12-.26.19v.04c-.75.65-1.42,1.42-1.94,2.31l-16.71,28.15c-2.62.23-5.24.5-7.86.8l-21.64-24.21c-2.19-2.45-5.44-3.54-8.6-2.89-3.17.65-5.77,2.97-6.89,6.12l-11.08,30.93c-2.57.77-5.12,1.58-7.65,2.42l-25.71-19.29c-2.61-1.96-6-2.38-8.97-1.09-2.98,1.28-5.1,4.09-5.62,7.39l-5.1,32.61c-2.36,1.28-4.7,2.6-7.02,3.93l-28.83-13.71c-2.93-1.39-6.33-1.11-9.01.76-2.68,1.86-4.24,5.04-4.12,8.39l1.11,33.09c-2.06,1.71-4.09,3.46-6.09,5.23l-30.91-7.6c-3.13-.77-6.43.21-8.69,2.58-2.28,2.38-3.21,5.81-2.47,9.08l7.29,32.24c-1.7,2.08-3.37,4.2-5.01,6.34l-31.73-1.15c-3.23-.13-6.26,1.5-8.04,4.3-1.79,2.78-2.08,6.34-.73,9.4l13.14,30.08c-1.27,2.41-2.54,4.85-3.76,7.32l-31.27,5.31c-3.18.54-5.86,2.76-7.09,5.85-1.23,3.11-.85,6.65,1.04,9.37l18.49,26.79c-.44,1.47-.86,2.95-1.29,4.43-.06.2-.6,1.22-.8,1.24-.56.05-.87,1.29-1.54.78-.23,1.29-.4.16-1.12,1.54-4.61,8.93-12.68,13.17-21.44,15.64l-31.72,23.36s-8.44,4.41,0,20.15c7.44,13.88,48.12,71.04,69.63,101.02,8.72,14.8,14.83,24.11,15.73,23.57,1.42-.85-1.04-25.23-17.84-56.49-12.35-27.53-27.38-69.11-21.58-72.47,0,0,1.58-1.37,4.5-3.13,5.67-3.42,16.49-8.33,31.35-7.73,4.29,1.32,8.69,2.36,13.21,3.1,81.7,38.93,165.35,51.09,240.31,50.13,74.97.96,158.61-11.19,240.31-50.13,4.52-.73,8.93-1.78,13.21-3.1,14.86-.6,25.68,4.31,31.35,7.73,2.92,1.76,4.5,3.13,4.5,3.13,5.8,3.36-9.22,44.95-21.58,72.47-16.8,31.26-19.26,55.64-17.84,56.49.9.54,7.01-8.77,15.73-23.57,21.52-29.98,62.19-87.13,69.63-101.02,8.44-15.74,0-20.15,0-20.15l-32.4-23.87c23.17-20.15,36.83-42.05,36.83-42.05,109.71-65.03,57.12-134.37,57.12-134.37Z"/>
    </g>
    <path class="cls-3" d="m82.41,252.57s9.62,27.69,11.98,30.64,10.77,9.08,10.77,9.08c0,0,21.1-9.67,28.77-10.85,7.67-1.18,29.36,1.8,43.83,12.13,14.46,10.33,22.09,25.06,22.98,30.37s-13.98,10.62-13.98,10.62l-41.61-24.2-39.25,3.5s-19.77-20.33-20.36-21.51-13.28-32.83-13.28-32.83l10.16-6.96Z"/>
    <g>
      <path class="cls-2" d="m172.48,422.45c-13.41-9.75-22.72-19.74-29.19-29.07-11.08,2.97-22.39,5.96-32.97,8.66,27.87,27.31,62.16,20.4,62.16,20.4Z"/>
      <path class="cls-2" d="m200.61,392.46c.18-5.23.16-10.16.01-14.87-3.5.99-7.75,2.19-12.58,3.54,9.92,7.24,12.57,11.33,12.57,11.33Z"/>
      <path d="m79.89,338.55c-14.28,1.96-25.59,5.47-26.72,13.14-2.66,18.02-8.79,62.74,9.2,61.1,6.92-.63,25.84-5.09,47.95-10.75-12.83-12.57-24.3-32.4-30.44-63.5Z"/>
      <path d="m143.29,393.38c16.49-4.42,32.46-8.82,44.75-12.25-10.24-7.48-28.24-18.31-59.15-31.49,0,0-2.27,19.69,14.41,43.75Z"/>
      <path d="m111.11,335.87c-10.27.72-21.44,1.34-31.22,2.68,6.14,31.09,17.61,50.92,30.44,63.5,10.58-2.71,21.89-5.69,32.97-8.66-15.56-22.44-14.63-41.07-14.43-43.48-7.06-3.16-13.22-8.09-17.75-14.04Z"/>
      <path class="cls-2" d="m185.56,320.01c-27.54-41.66-82.9-22.18-82.9-22.18l-10.99-13.1c-4.2-11.72-7.17-22.43-9.26-32.16-3.27-3.41-7.06-6.03-11.41-5.96-3.58.05-9.46,1.67-12.19,3.84-2.99,2.38-3.36,7.11-4.61,10.83l.23-.12c8.08,29.62,21.87,51.44,21.87,51.44.81,9.43,2.03,18.04,3.59,25.95,9.79-1.34,20.97-1.96,31.25-2.68,0,0-.02,0-.03,0,4.53,5.95,10.69,10.88,17.75,14.04.01-.17.02-.27.02-.27,30.91,13.19,48.91,24.02,59.15,31.49,4.83-1.35,9.08-2.54,12.58-3.54-.85-26.42-6.66-44.86-15.07-57.58Z"/>
    </g>
    <g>
      <path class="cls-3" d="m519.55,237.69l-282.3,65.28,14.11,61s1.03,2.84,4,4.77c2.81,1.83,6.05,1.12,6.05,1.12l193.19-44.67s104.31-10.99,138.25-106.1l-73.3,18.6Z"/>
      <path class="cls-3" d="m254.86,295.78c-1.27-4.34-22.96,3.74-29.83,5.69-9.21,2.61-21.33,5.77-33.91,8.99,8.41,12.72,14.21,31.16,15.07,57.58,1.63-.46,3.11-.88,4.39-1.25,23.64-6.77,43.37,2.49,41.91-16.75-1.46-19.24,1.62-34.05,2.36-41.66.72-7.44,1.29-8.25.02-12.59Z"/>
    </g>
    <g>
      <path d="m435.37,214.53c-2.45-5.48-4.89-11.61-9.61-16.48l-7.27-1.45s-5.38.3-16.99,3.93c3.26,4.03,5.32,9.85,5.32,16.35,0,12.14-7.16,21.98-15.98,21.98s-15.98-9.84-15.98-21.98c0-2.56.34-5.01.92-7.3-5.27,2.21-10.1,5.73-12.35,13.87,0,0-13.97,56.27,40.12,59.44,0,0,57.45-11.07,31.82-68.36Z"/>
      <path class="cls-1" d="m390.85,238.86c8.83,0,15.98-9.84,15.98-21.98,0-6.5-2.06-12.33-5.32-16.35-4.15,1.3-9.09,3.01-14.89,5.3-3.36,1.33-7.2,2.23-10.83,3.75-.59,2.29-.92,4.74-.92,7.3,0,12.14,7.16,21.98,15.98,21.98Z"/>
    </g>
    <g>
      <path class="cls-4" d="m513.99,247.24l-282.3,65.28,14.11,61s1.03,2.84,4,4.77c2.81,1.83,6.05,1.12,6.05,1.12l193.19-44.67s92.92-21.49,135.17-103.74l-70.22,16.24Z"/>
      <path d="m249.3,305.34c-1.27-4.34-22.96,3.74-29.83,5.69-9.21,2.61-21.33,5.77-33.91,8.99,8.41,12.72,14.21,31.16,15.07,57.58,1.63-.46,3.11-.88,4.39-1.25,23.64-6.77,43.37,2.49,41.91-16.75s1.62-34.05,2.36-41.66c.72-7.44,1.29-8.25.02-12.59Z"/>
    </g>
    <g>
      <path d="m315.9,223.44c-3.79-13.74-14.96-14.36-23.18-17.62-7.57-2.99-13.67-5-18.46-6.37,2,3.75,3.19,8.36,3.19,13.37,0,12.52-7.38,22.67-16.48,22.67s-16.27-9.89-16.47-22.18c-.18.4-.36.81-.53,1.2-25.63,57.29,31.82,68.36,31.82,68.36,54.08-3.18,40.12-59.44,40.12-59.44Z"/>
      <path class="cls-1" d="m260.96,235.5c9.1,0,16.48-10.15,16.48-22.67,0-5.01-1.19-9.62-3.19-13.37-9.14-2.61-13.42-2.86-13.42-2.86l-7.27,1.45c-4.38,4.52-6.79,10.12-9.07,15.28.19,12.29,7.49,22.18,16.47,22.18Z"/>
    </g>
  </g>
  <polygon class="cls-1" points="583.47 235.82 584.63 243.57 588.96 236.7 601.03 236.7 592.25 232.46 597.6 216.05 583.47 229.24 570.9 222.82 578.01 232.46 567.38 238.13 583.47 235.82"/>
  <path class="cls-1" d="m298.91,310.28l-34.07,17.69s203.83-49.81,210.91-56.56l-176.83,38.87Z"/>
</svg>